:FULLY-SPECIFIED
:FORCE-ALL-JOINTS-BE-3DOF
:DEGREES
2854
root -6.09106 13.2691 -28.8166 1240.9 -66.6288 -159.235
lfemur -65.5893 44.9739 -5.55396
ltibia 77.122 -0 0
lfoot -4.74448 -6.1473 0.000980227
ltoes -29.3474 0 0
rfemur -31.2684 -19.1883 22.2705
rtibia 88.8023 -0 0
rfoot -41.0248 -28.7276 -0.000371734
rtoes -13.5328 0 0
lowerback 15.7213 5.67196 0.904027
upperback -4.48796 8.03769 1.65386
thorax -13.9827 3.72544 -0.867756
lowerneck -2.51521 9.63381 2.20087
upperneck 9.08943 12.5423 2.09439
head 3.37155 6.33698 0.77143
lclavicle -7.1637e-14 2.78299e-15 0
lhumerus 5.45566 12.217 84.2373
lradius 93.611 0 0
lwrist -19.2501 0 0
lhand -39.4373 388.19 0
lfingers 7.12502 0 0
lthumb -12.4253 -662.199 0
rclavicle -7.1637e-14 2.78299e-15 0
rhumerus -59.0778 50.9298 -111.51
rradius 113.583 0 0
rwrist -83.7621 0 0
rhand 7.9787 -385.874 0
rfingers 7.12502 0 0
rthumb 33.2068 307.17 0
2855
root -6.09253 13.2651 -28.815 1240.78 -66.6527 -159.075
lfemur -65.6356 44.9707 -5.55364
ltibia 77.1542 -0 0
lfoot -4.77534 -6.16885 0.000974426
ltoes -29.3958 0 0
rfemur -31.2904 -19.1782 22.2881
rtibia 88.8286 -0 0
rfoot -41.0171 -28.7734 -0.000412007
rtoes -13.487 0 0
lowerback 15.7069 5.6403 0.983034
upperback -4.49673 8.01236 1.66266
thorax -13.9742 3.70758 -0.893024
lowerneck -2.52307 9.63262 2.19849
upperneck 9.11441 12.5401 2.09344
head 3.38164 6.33572 0.772945
lclavicle 9.57397e-14 1.19271e-15 0
lhumerus 5.50316 12.2867 84.2231
lradius 93.5499 0 0
lwrist -19.3135 0 0
lhand -39.4641 387.98 0
lfingers 7.12502 0 0
lthumb -12.4512 -662.411 0
rclavicle 9.57397e-14 1.19271e-15 0
rhumerus -59.1218 50.9971 -111.593
rradius 113.56 0 0
rwrist -83.6968 0 0
rhand 8.124 -385.968 0
rfingers 7.12502 0 0
rthumb 33.3449 307.105 0
2856
root -6.09322 13.2624 -28.8137 1240.73 -66.7042 -158.979
lfemur -65.6819 44.9676 -5.55332
ltibia 77.1864 -0 0
lfoot -4.8062 -6.19039 0.000957026
ltoes -29.4441 0 0
rfemur -31.3125 -19.168 22.3056
rtibia 88.8549 -0 0
rfoot -41.0093 -28.8192 -0.000446083
rtoes -13.4411 0 0
lowerback 15.6969 5.6177 1.03436
upperback -4.51268 7.99174 1.65318
thorax -13.9778 3.69297 -0.925572
lowerneck -2.51992 9.62416 2.24297
upperneck 9.13048 12.5292 2.05396
head 3.39278 6.33016 0.753994
lclavicle -2.76683e-14 6.36111e-15 0
lhumerus 5.55826 12.2511 84.175
lradius 93.4596 0 0
lwrist -19.2532 0 0
lhand -39.3947 387.955 0
lfingers 7.12502 0 0
lthumb -12.3843 -662.432 0
rclavicle -2.76683e-14 6.36111e-15 0
rhumerus -59.1506 51.0403 -111.631
rradius 113.571 0 0
rwrist -83.6644 0 0
rhand 8.1019 -385.95 0
rfingers 7.12502 0 0
rthumb 33.3239 307.118 0
2857
root -6.09392 13.2596 -28.8131 1240.66 -66.7331 -158.876
lfemur -65.7282 44.9644 -5.55299
ltibia 77.2186 -0 0
lfoot -4.83705 -6.21193 0.000928024
ltoes -29.5664 0 0
rfemur -31.3346 -19.1579 22.3231
rtibia 88.8812 -0 0
rfoot -41.0016 -28.865 -0.000473964
rtoes -13.3952 0 0
lowerback 15.6798 5.60624 1.06061
upperback -4.51975 7.98291 1.6644
thorax -13.9738 3.68739 -0.923678
lowerneck -2.54576 9.62974 2.25375
upperneck 9.16399 12.536 2.03988
head 3.41119 6.33341 0.751245
lclavicle -2.9122e-14 1.19271e-15 0
lhumerus 5.59618 12.2531 84.1984
lradius 93.3981 0 0
lwrist -19.2015 0 0
lhand -39.4545 388.085 0
lfingers 7.12502 0 0
lthumb -12.4419 -662.305 0
rclavicle -2.9122e-14 1.19271e-15 0
rhumerus -59.1743 51.0736 -111.643
rradius 113.575 0 0
rwrist -83.6537 0 0
rhand 8.0662 -385.926 0
rfingers 7.12502 0 0
rthumb 33.29 307.135 0
2858
root -6.09372 13.2565 -28.8117 1240.6 -66.7614 -158.797
lfemur -65.7568 44.9678 -5.57191
ltibia 77.2508 -0 0
lfoot -4.86791 -6.23347 0.000887423
ltoes -29.6888 0 0
rfemur -31.3567 -19.1477 22.3406
rtibia 88.9076 -0 0
rfoot -40.9938 -28.9108 -0.000495649
rtoes -13.3493 0 0
lowerback 15.6882 5.58521 1.06748
upperback -4.51262 7.95913 1.69128
thorax -13.974 3.67709 -0.891822
lowerneck -2.53288 9.6287 2.23076
upperneck 9.12378 12.54 2.0099
head 3.39523 6.33364 0.743133
lclavicle 1.54679e-14 1.47101e-14 0
lhumerus 5.64139 12.3492 84.2448
lradius 93.3476 0 0
lwrist -19.1331 0 0
lhand -39.4688 387.973 0
lfingers 7.12502 0 0
lthumb -12.4557 -662.419 0
rclavicle 1.54679e-14 1.47101e-14 0
rhumerus -59.2142 51.1729 -111.656
rradius 113.598 0 0
rwrist -83.6776 0 0
rhand 7.97109 -385.932 0
rfingers 7.12502 0 0
rthumb 33.1995 307.11 0
2859
root -6.09359 13.254 -28.8112 1240.6 -66.781 -158.786
lfemur -65.7855 44.9712 -5.59084
ltibia 77.283 -0 0
lfoot -4.89877 -6.25501 0.000835221
ltoes -29.8111 0 0
rfemur -31.3787 -19.1376 22.3582
rtibia 88.9339 -0 0
rfoot -40.9861 -28.9566 -0.000511139
rtoes -13.3035 0 0
lowerback 15.6935 5.59617 1.08366
upperback -4.51118 7.97703 1.68876
thorax -13.9727 3.68382 -0.908731
lowerneck -2.53452 9.62403 2.22431
upperneck 9.1073 12.5367 1.98678
head 3.39101 6.33101 0.73623
lclavicle -9.07452e-14 -3.18055e-14 0
lhumerus 5.69771 12.3615 84.3271
lradius 93.3045 0 0
lwrist -19.0762 0 0
lhand -39.4375 387.979 0
lfingers 7.12502 0 0
lthumb -12.4255 -662.411 0
rclavicle -9.07452e-14 -3.18055e-14 0
rhumerus -59.1784 51.1458 -111.595
rradius 113.597 0 0
rwrist -83.6699 0 0
rhand 7.92172 -385.873 0
rfingers 7.12502 0 0
rthumb 33.1526 307.159 0
2860
root -6.09353 13.2502 -28.8107 1240.67 -66.8001 -158.846
lfemur -65.8141 44.9745 -5.60976
ltibia 77.3152 -0 0
lfoot -4.92962 -6.27655 0.000771418
ltoes -29.9335 0 0
rfemur -31.4008 -19.1274 22.3757
rtibia 88.9602 -0 0
rfoot -40.9783 -29.0024 -0.000520432
rtoes -13.2576 0 0
lowerback 15.6965 5.60088 1.04487
upperback -4.51035 7.97518 1.68676
thorax -13.9789 3.68607 -0.889639
lowerneck -2.54178 9.63205 2.21516
upperneck 9.10343 12.547 1.99802
head 3.38955 6.33632 0.741794
lclavicle -9.15652e-15 -1.70955e-14 0
lhumerus 5.71432 12.38 84.327
lradius 93.2738 0 0
lwrist -18.9721 0 0
lhand -39.3605 387.79 0
lfingers 7.12502 0 0
lthumb -12.3513 -662.595 0
rclavicle -9.15652e-15 -1.70955e-14 0
rhumerus -59.197 51.1627 -111.593
rradius 113.604 0 0
rwrist -83.709 0 0
rhand 7.80569 -385.934 0
rfingers 7.12502 0 0
rthumb 33.0423 307.075 0
